<svg id="Layer_1" data-name="Layer 1" xmlns="http://www.w3.org/2000/svg" viewBox="0 0 596.28 842.89"><defs><style>.cls-1{fill:#b11f24;}.cls-1,.cls-3{stroke:#231f20;stroke-miterlimit:10;}.cls-2,.cls-3{fill:#791214;}.cls-4,.cls-5{fill:#421113;}.cls-5{opacity:0.3;}</style></defs><title>ceva random</title><rect class="cls-1" x="0.5" y="0.5" width="595.28" height="841.89"/><path class="cls-2" d="M146,0c56.54-3.93,108.35,22.62,131.47,67.28,19.82,38.29,11.65,76.6,8.53,88.72L185,421c-4.68,12.45-25.59,72.09,3.62,134.24,27.7,59,89.7,97.17,159.38,98.81q196.15,9.35,201.38,46Q556.2,747.72,238,841.89H0V0Z" transform="translate(0.5 0.5)"/><path class="cls-3" d="M781,376" transform="translate(0.5 0.5)"/><path class="cls-2" d="M-179,120.89" transform="translate(0.5 0.5)"/><path class="cls-4" d="M0,0H146c45.72,1.39,86.15,26,104.15,64,16.63,35.15,8.07,69,5.11,79.08Q182.11,320.8,109,498.51c-23.51,57.1-7.06,134.67,43.66,179.23C201.15,720.39,270.7,712,292.79,708.38q144.65-34.44,150.89-17.61,8.85,23.9-261.19,151.12H0Z" transform="translate(0.5 0.5)"/><path class="cls-5" d="M595.28,115.53l-2.64,3.15c.59,13.11,4.06,133.8-90.75,207.49-53.44,41.54-111.28,47.29-135.57,48.26-95.66,17.71-143.83,97.73-130.21,144,13.28,45.15,93.44,85.35,181.53,53.61,26.4-5,78.49-18.7,126.38-61.27A257,257,0,0,0,595.28,448Z" transform="translate(0.5 0.5)"/><path class="cls-4" d="M730.91,277.91" transform="translate(0.5 0.5)"/></svg>